<svg width="80" height="80" viewBox="0 0 80 80" fill="none" xmlns="http://www.w3.org/2000/svg">
<path d="M40 48.3334V31.6667" stroke="white" stroke-width="3" stroke-linecap="round"/>
<path d="M31.6667 40L48.3334 40" stroke="white" stroke-width="3" stroke-linecap="round"/>
<path fill-rule="evenodd" clip-rule="evenodd" d="M37.3128 0.10879C35.4224 0.260718 34.8973 0.521166 35.3804 1.12888C36.1366 2.08385 37.1868 2.27919 41.0516 2.25749C61.3417 2.06215 79.5314 19.8377 75.6036 40.7604C74.6794 45.6655 70.9197 54.5859 68.1051 58.536C50.3565 83.4522 25.0673 84.4723 8.38989 60.9234C1.94158 51.8077 2.0466 34.2492 8.62094 23.4189C13.851 14.8241 25.3824 4.4713 31.4736 2.93031C33.28 2.47453 33.1329 1.71489 31.1375 1.21569C24.8783 -0.325292 8.87299 13.4351 3.5169 24.9599C-0.957014 34.5965 -1.18806 48.5956 2.97079 57.1469C12.4437 76.5503 38.405 85.9699 54.8094 75.9426C66.5718 68.7369 73.6082 59.5344 78.3972 45.1229C86.5048 20.6842 62.4759 -1.75775 37.3128 0.10879Z" fill="white"/>
</svg>
