<svg width="868" height="636" viewBox="0 0 868 636" fill="none" xmlns="http://www.w3.org/2000/svg">
<path d="M819.389 223.745L819.776 224.689V224.742C822.246 231.507 821.901 238.652 819.303 244.836C816.583 251.32 811.357 256.781 804.292 259.671L803.347 260.054H803.288C796.527 262.519 789.382 262.183 783.202 259.581C776.712 256.86 771.249 251.635 768.362 244.566L767.98 243.621V243.569C765.51 236.804 765.855 229.659 768.453 223.474C771.173 216.987 776.402 211.526 783.464 208.64L784.408 208.257H784.464C791.23 205.791 798.375 206.128 804.554 208.729C811.046 211.451 816.507 216.676 819.389 223.745ZM810.229 227.29C808.371 222.86 804.884 219.569 800.739 217.83C796.541 216.068 791.683 215.9 787.17 217.74L787.016 217.808C782.586 219.663 779.292 223.153 777.549 227.294C775.791 231.492 775.622 236.35 777.466 240.866L777.523 241.005C779.378 245.443 782.868 248.741 787.021 250.479C791.215 252.242 796.073 252.411 800.589 250.57L800.727 250.506C805.166 248.655 808.459 245.169 810.203 241.016C811.968 236.818 812.137 231.961 810.292 227.448L810.229 227.29Z" fill="#D8A1F0"/>
<path d="M795.658 503.063C795.658 505.946 793.322 508.281 790.44 508.281C787.562 508.281 785.226 505.946 785.226 503.063V462.91C785.226 460.027 787.562 457.691 790.44 457.691C793.322 457.691 795.658 460.027 795.658 462.91V503.063ZM810.518 477.77C813.402 477.77 815.737 480.105 815.737 482.988C815.737 485.863 813.402 488.198 810.518 488.198H770.365C767.486 488.198 765.151 485.863 765.151 482.988C765.151 480.105 767.486 477.77 770.365 477.77H810.518Z" fill="#D8A1F0"/>
<path d="M66.9528 213.858C66.9528 216.741 64.6178 219.076 61.7368 219.076C58.8568 219.076 56.5218 216.741 56.5218 213.858V173.704C56.5218 170.825 58.8568 168.49 61.7368 168.49C64.6178 168.49 66.9528 170.825 66.9528 173.704V213.858ZM81.8148 188.568C84.6968 188.568 87.0318 190.904 87.0318 193.782C87.0318 196.66 84.6968 198.996 81.8148 198.996H41.6598C38.7808 198.996 36.4458 196.66 36.4458 193.782C36.4458 190.904 38.7808 188.568 41.6598 188.568H81.8148Z" fill="#D8A1F0"/>
<path d="M102.157 491.801L102.547 492.746V492.798C105.014 499.568 104.668 506.711 102.075 512.892C99.3502 519.38 94.1242 524.841 87.0602 527.728L86.1152 528.113H86.0592C79.2932 530.58 72.1492 530.239 65.9692 527.641C59.4802 524.92 54.0192 519.692 51.1292 512.625L50.7472 511.682V511.629C48.2782 504.86 48.6212 497.72 51.2192 491.536C53.9412 485.047 59.1692 479.586 66.2302 476.7L67.1752 476.315H67.2312C74.0012 473.848 81.1412 474.189 87.3222 476.789C93.8132 479.507 99.2742 484.736 102.157 491.801ZM92.9972 495.351C91.1382 490.92 87.6522 487.626 83.5062 485.887C79.3092 484.125 74.4542 483.956 69.9382 485.8L69.7842 485.865C65.3532 487.719 62.0592 491.209 60.3202 495.355C58.5582 499.549 58.3902 504.407 60.2332 508.923L60.2902 509.065C62.1492 513.503 65.6352 516.801 69.7872 518.54C73.9822 520.302 78.8402 520.471 83.3562 518.627L83.4982 518.567C87.9332 516.712 91.2272 513.226 92.9702 509.073C94.7352 504.874 94.9042 500.021 93.0592 495.504L92.9972 495.351Z" fill="#D8A1F0"/>
<path d="M7.254 382.43C11.245 382.43 14.506 379.172 14.506 375.177C14.506 371.185 11.245 367.928 7.254 367.928C3.261 367.928 0 371.185 0 375.177C0 379.172 3.261 382.43 7.254 382.43Z" fill="#D8A1F0"/>
<path d="M29.0069 619.915C32.9989 619.915 36.2589 616.654 36.2589 612.658C36.2589 608.667 32.9989 605.409 29.0069 605.409C25.0139 605.409 21.7529 608.667 21.7529 612.658C21.7529 616.654 25.0139 619.915 29.0069 619.915Z" fill="#D8A1F0"/>
<path d="M170.224 154.22C174.217 154.22 177.477 150.963 177.477 146.967C177.477 142.971 174.217 139.718 170.224 139.718C166.232 139.718 162.975 142.971 162.975 146.967C162.975 150.963 166.232 154.22 170.224 154.22Z" fill="#D8A1F0"/>
<path d="M722.238 188.567C726.23 188.567 729.491 185.308 729.491 181.312C729.491 177.319 726.23 174.067 722.238 174.067C718.247 174.067 714.981 177.319 714.981 181.312C714.981 185.308 718.247 188.567 722.238 188.567Z" fill="#D8A1F0"/>
<path d="M860.107 386.676C864.099 386.676 867.36 383.419 867.36 379.424C867.36 375.432 864.099 372.174 860.107 372.174C856.116 372.174 852.854 375.432 852.854 379.424C852.854 383.419 856.116 386.676 860.107 386.676Z" fill="#D8A1F0"/>
<path d="M807.536 615.095C811.527 615.095 814.788 611.837 814.788 607.843C814.788 603.85 811.527 600.593 807.536 600.593C803.544 600.593 800.282 603.85 800.282 607.843C800.282 611.837 803.544 615.095 807.536 615.095Z" fill="#D8A1F0"/>
<path d="M162.976 297.651H704.218C704.226 297.651 704.234 297.655 704.234 297.663V608.532C704.234 622.599 692.727 634.109 678.66 634.109H188.549C174.482 634.109 162.976 622.599 162.976 608.532V297.651Z" fill="#A078FF"/>
<path d="M433.605 297.651H704.218C704.225 297.651 704.233 297.659 704.233 297.667V608.532C704.233 622.599 692.727 634.109 678.659 634.109H459.179C445.111 634.109 433.605 622.599 433.605 608.532V297.651Z" fill="#7E66FF"/>
<path d="M162.974 327.872H433.602V297.65H162.974V327.872Z" fill="#5E4DBE"/>
<path d="M704.235 327.872H433.607V297.65H704.235V327.872Z" fill="#5E4DBE"/>
<path d="M271.28 299.096H325.295V609.976C325.295 624.043 336.806 635.553 350.868 635.553H296.854C282.787 635.553 271.28 624.043 271.28 609.976V299.096Z" fill="#FFE600"/>
<path d="M271.281 327.856H325.295V297.634H271.281V327.856Z" fill="#FFCD03"/>
<path d="M595.924 299.096H541.909V609.976C541.909 624.043 530.403 635.553 516.336 635.553H570.351C584.417 635.553 595.924 624.043 595.924 609.976V299.096Z" fill="#FFCD03"/>
<path d="M541.913 327.856H595.929V297.634H541.913V327.856Z" fill="#DDB000"/>
<path d="M151.459 216.298H715.75C726.578 216.298 735.442 225.159 735.442 235.994V283.397C735.442 294.234 726.578 303.094 715.75 303.094H151.459C140.626 303.094 131.766 294.234 131.766 283.397V235.994C131.766 225.159 140.626 216.298 151.459 216.298Z" fill="#A078FF"/>
<path d="M433.604 216.298H715.742C726.579 216.298 735.439 225.162 735.439 235.994V283.397C735.439 294.234 726.579 303.094 715.742 303.094H433.604C422.771 303.094 413.907 294.234 413.907 283.397V235.994C413.907 225.162 422.771 216.298 433.604 216.298Z" fill="#7E66FF"/>
<path d="M271.279 216.298H325.294C314.461 216.298 305.601 225.162 305.601 235.994V283.397C305.601 294.234 314.461 303.094 325.294 303.094H271.279C260.446 303.094 251.586 294.234 251.586 283.397V235.994C251.586 225.162 260.446 216.298 271.279 216.298Z" fill="#FFE600"/>
<path d="M595.924 216.298H541.909C552.742 216.298 561.606 225.162 561.606 235.994V283.397C561.606 294.234 552.742 303.094 541.909 303.094H595.924C606.761 303.094 615.619 294.234 615.619 283.397V235.994C615.619 225.162 606.761 216.298 595.924 216.298Z" fill="#FFCD03"/>
<path d="M438.173 202.059C434.277 179.967 424.761 160.194 414.596 140.543C401.986 114.622 391.21 87.7032 374.281 63.888C350.204 29.9351 317.795 -1.8805 275.903 30.307C259.594 42.6922 250.878 57.4144 248.165 72.847C254.779 71.6655 262.19 72.557 268.941 74.4181C308.538 86.2002 339.57 121.607 365.672 151.849C376.64 164.66 388.029 176.052 399.533 188.098C403.257 192.001 409.894 199.042 413.53 206.007C420.775 205.86 428 205.192 435.153 203.931L438.173 202.059Z" fill="#FA78F4"/>
<path d="M365.37 151.782C339.268 121.54 308.235 86.1325 268.64 74.3492C261.889 72.4882 254.476 71.597 247.862 72.7793C243.692 96.4928 253.825 121.897 273.41 143.202C308.225 180.585 361.241 207.003 413.228 205.939C409.591 198.975 402.954 191.932 399.23 188.031C387.725 175.983 376.339 164.593 365.37 151.782Z" fill="#C331C8"/>
<path d="M419.348 201.52C425.158 179.85 436.361 160.988 448.203 142.301C463.031 117.582 476.116 91.7078 495.057 69.4613C522.013 37.7422 557.073 8.88804 595.999 44.6083C611.159 58.3766 618.558 73.8028 619.912 89.415C613.429 87.6602 605.97 87.8957 599.076 89.167C558.603 97.4416 524.6 129.998 495.952 157.84C483.907 169.643 471.574 179.998 459.053 190.994C455.011 194.549 447.777 200.991 443.55 207.607C436.347 206.827 429.204 205.528 422.191 203.649L419.348 201.52Z" fill="#FA78F4"/>
<path d="M496.322 158.162C524.971 130.32 558.974 97.764 599.446 89.4895C606.34 88.2171 613.8 87.9826 620.283 89.7374C622.368 113.726 610.053 138.15 588.685 157.661C550.731 191.857 495.613 213.536 443.92 207.929C448.148 201.314 455.381 194.871 459.424 191.316C471.945 180.321 484.278 169.966 496.322 158.162Z" fill="#C331C8"/>
<path d="M429.865 193.677C408.265 193.677 390.754 204.402 390.754 217.631H468.976C468.976 204.402 451.465 193.677 429.865 193.677Z" fill="#FA78F4"/>
</svg>