<svg width="20" height="20" viewBox="0 0 20 20" fill="none" xmlns="http://www.w3.org/2000/svg">
<path d="M4.99582 5.70236L6.68634 5.5005L7.06481 3.43152L8.22546 3.53244L8.5787 5.32388L12.6662 5.19773L12.969 4.31462L13.7007 3.75953L14.6595 5.32388L16.0472 5.82851L16.5266 10.6225V12.6663L16.4005 13.5998L15.9715 14.3568L13.1708 16.2744L3.63332 15.4922L3.48193 10.4207L3.73425 7.49379L4.99582 5.70236Z" fill="white"/>
<path d="M16.7393 12.313C16.4872 6.84216 17.1781 5.4665 15.1615 5.15842C14.7507 5.09306 14.7414 5.09307 14.7414 4.72897C14.7414 3.21655 11.7726 2.88979 11.7445 4.40221C11.7352 4.65428 11.7819 5.00904 11.7819 5.00904L8.84107 5.11174V4.71963C8.8504 3.94474 8.15022 3.1792 7.12327 3.1792C6.67514 3.1792 6.18969 3.43127 6.16169 3.92607C6.12434 4.53291 6.15236 5.83994 6.12435 6.12001C6.04033 6.84822 6.63779 7.259 7.1606 7.20298C7.59939 7.16564 8.08489 6.90424 8.26227 6.19471L8.32759 5.86795H12.174L12.202 6.31607C12.0433 7.76314 14.0225 7.54841 14.0972 6.58681C14.1066 6.40943 14.1252 6.07333 14.1439 5.79326C14.4426 5.79326 15.5536 6.00798 15.6563 6.09201C15.815 6.22271 15.759 7.42704 15.7683 8.05255C15.3202 8.02454 13.7518 7.83782 10.923 7.80048C7.53407 7.7538 4.69595 7.93118 4.24782 7.93118C3.67833 7.93118 4.32252 6.40943 5.05072 6.01732C5.83494 5.60654 5.73224 5.32647 4.864 5.49451C3.12752 5.82127 3.30726 6.59167 3.11121 10.0926C2.90582 13.6683 2.87075 15.5038 3.51493 15.8959C4.50454 16.4934 11.5284 16.4005 12.6487 16.4005C13.2089 16.4005 16.7486 13.8782 16.7393 13.8875C16.7393 13.625 16.7579 13.6261 16.7393 13.3273L16.7393 12.313ZM7.56207 6.40009C7.56207 6.52146 7.46869 6.61482 7.34732 6.62416L7.05794 6.65216C6.91791 6.67083 6.80585 6.5588 6.79651 6.41876C6.75917 5.41982 6.60048 4.19682 7.19798 3.82338C7.32869 3.73936 7.50606 3.83272 7.51539 3.98209C7.57141 4.65428 7.56207 4.59826 7.56207 6.40009ZM13.1916 6.95091C12.7528 6.96025 12.6501 4.75697 13.0703 4.46756C13.341 4.28084 13.5277 4.52357 13.5277 5.55986C13.5371 6.71751 13.3783 6.94158 13.1916 6.95091ZM11.1284 15.624C10.6242 15.8387 4.2945 15.6146 4.0611 15.3812C3.62232 14.9425 4.02377 8.52869 4.02377 8.52869C4.02377 8.52869 7.36599 8.47267 10.9416 8.57537C14.0972 8.66872 15.4042 8.82743 15.7777 8.8461C15.8804 8.85544 16.3098 11.7589 16.2164 12.7765C15.7216 12.5151 14.9654 12.2257 14.6013 12.1323C13.7518 11.9083 13.0236 12.0203 12.8742 12.4871C12.4914 13.7381 11.5298 15.4559 11.1284 15.624ZM12.202 15.68C12.3327 15.4559 12.3141 15.6053 13.1169 14.0836C13.9572 12.4684 13.7891 12.6272 14.4893 12.8605C14.8067 12.9632 15.5349 13.206 15.9924 13.3273C15.0028 14.2796 13.6584 14.9705 12.202 15.68Z" fill="black"/>
<path d="M10.2081 10.0772C9.61803 10.0772 8.95425 10.0475 8.73299 10.0177C8.28376 9.95815 7.84123 10.0251 8.05579 10.5908C8.25693 11.1193 8.96764 11.4989 8.88048 11.03L8.84695 10.8216C10.9657 10.8216 11.1534 10.7993 10.8316 11.03C10.6372 11.1714 9.77896 12.4219 9.54429 12.9058C9.44371 13.1142 9.28949 13.3524 9.19562 13.4342C8.99447 13.6203 9.03469 13.732 9.34982 13.8809C9.83928 14.1116 10.3153 13.9925 10.3153 13.6501C10.3153 13.1514 10.8853 12.1986 11.7167 11.3277L11.8977 11.1342C12.0385 10.9853 12.0318 10.7397 11.891 10.5908C11.3479 10.0698 11.3881 10.0847 10.2081 10.0772Z" fill="black"/>
</svg>
