<svg width="40" height="40" viewBox="0 0 40 40" fill="none" xmlns="http://www.w3.org/2000/svg">
<path fill-rule="evenodd" clip-rule="evenodd" d="M8.58238 33.3526C7.80576 32.4893 7.80576 31.0897 8.58238 30.2264L17.7823 20L8.58238 9.77361C7.80576 8.91034 7.80576 7.51071 8.58238 6.64745C9.35899 5.78418 10.6181 5.78418 11.3947 6.64745L22.0008 18.4369C22.7774 19.3002 22.7774 20.6998 22.0008 21.5631L11.3947 33.3526C10.6181 34.2158 9.35899 34.2158 8.58238 33.3526Z" fill="#7A7E80"/>
<path fill-rule="evenodd" clip-rule="evenodd" d="M18.9991 33.3526C18.2225 32.4893 18.2225 31.0897 18.9991 30.2264L28.199 20L18.9991 9.77361C18.2225 8.91034 18.2225 7.51071 18.9991 6.64745C19.7757 5.78418 21.0349 5.78418 21.8115 6.64745L32.4175 18.4369C33.1942 19.3002 33.1942 20.6998 32.4175 21.5631L21.8115 33.3526C21.0349 34.2158 19.7757 34.2158 18.9991 33.3526Z" fill="#7A7E80"/>
</svg>
