<svg width="40" height="40" viewBox="0 0 40 40" fill="none" xmlns="http://www.w3.org/2000/svg">
<path fill-rule="evenodd" clip-rule="evenodd" d="M7.65312 25.5071C3.90668 16.3112 10.6719 6.25 20.6015 6.25H21.1372C28.5633 6.25 34.5833 12.27 34.5833 19.6961C34.5833 27.9641 27.8808 34.6667 19.6127 34.6667H6.57893C6.0485 34.6667 5.57583 34.3319 5.39978 33.8315C5.22374 33.3312 5.38265 32.7742 5.79622 32.4421L9.08204 29.8032C9.22571 29.6879 9.27654 29.4918 9.20701 29.3212L7.65312 25.5071ZM20.6015 8.75C12.4473 8.75 6.89179 17.0123 9.96835 24.5638L11.5222 28.3779C12.0089 29.5725 11.6532 30.9448 10.6474 31.7525L10.1317 32.1667H19.6127C26.5 32.1667 32.0833 26.5834 32.0833 19.6961C32.0833 13.6507 27.1826 8.75 21.1372 8.75H20.6015Z" />
</svg>
