<svg width="16" height="16" viewBox="0 0 16 16" fill="none" xmlns="http://www.w3.org/2000/svg">
<path d="M7.98794e-08 8.00004C2.59608e-07 12.1118 7.99998 8.00004 7.99998 8.00004C7.99998 8.00004 -9.98493e-08 3.88832 7.98794e-08 8.00004Z" fill="#E55733"/>
<path d="M16 8.00004C16 12.1118 8.00002 8.00004 8.00002 8.00004C8.00002 8.00004 16 3.88832 16 8.00004Z" fill="#E55733"/>
<path d="M3.99944 15.0863C7.48086 17.1422 7.99943 8.00005 7.99943 8.00005C7.99943 8.00005 0.518029 13.0305 3.99944 15.0863Z" fill="#E55733"/>
<path d="M11.9994 0.913714C15.4809 2.96957 7.99945 7.99998 7.99945 7.99998C7.99945 7.99998 8.51803 -1.14214 11.9994 0.913714Z" fill="#E55733"/>
<path d="M12.0006 15.0863C8.51914 17.1422 8.00057 8.00005 8.00057 8.00005C8.00057 8.00005 15.482 13.0305 12.0006 15.0863Z" fill="#E55733"/>
<path d="M4.00056 0.913714C0.519142 2.96957 8.00055 7.99998 8.00055 7.99998C8.00055 7.99998 7.48197 -1.14214 4.00056 0.913714Z" fill="#E55733"/>
</svg>
