<svg width="32" height="32" viewBox="0 0 32 32" fill="none" xmlns="http://www.w3.org/2000/svg">
<path fill-rule="evenodd" clip-rule="evenodd" d="M26.3334 15.9999C26.3334 15.4476 25.8856 14.9999 25.3334 14.9999H6.66669C6.1144 14.9999 5.66669 15.4476 5.66669 15.9999C5.66669 16.5522 6.1144 16.9999 6.66669 16.9999H25.3334C25.8856 16.9999 26.3334 16.5522 26.3334 15.9999Z" fill="#7A7E80"/>
<path fill-rule="evenodd" clip-rule="evenodd" d="M26.3334 9.33325C26.3334 8.78097 25.8856 8.33325 25.3334 8.33325H6.66669C6.1144 8.33325 5.66669 8.78097 5.66669 9.33325C5.66669 9.88554 6.1144 10.3333 6.66669 10.3333H25.3334C25.8856 10.3333 26.3334 9.88554 26.3334 9.33325Z" fill="#7A7E80"/>
<path fill-rule="evenodd" clip-rule="evenodd" d="M26.3334 22.6666C26.3334 22.1143 25.8856 21.6666 25.3334 21.6666H6.66669C6.1144 21.6666 5.66669 22.1143 5.66669 22.6666C5.66669 23.2189 6.1144 23.6666 6.66669 23.6666H25.3334C25.8856 23.6666 26.3334 23.2189 26.3334 22.6666Z" fill="#7A7E80"/>
</svg>
