<svg width="24" height="24" viewBox="0 0 24 24" fill="none" xmlns="http://www.w3.org/2000/svg">
<path fill-rule="evenodd" clip-rule="evenodd" d="M13.5569 5.53472C12.6863 4.69936 11.3118 4.69936 10.4413 5.53472L5.81482 9.97405C5.70147 10.0828 5.62522 10.2245 5.59689 10.379C5.04276 13.4009 5.00185 16.4945 5.4759 19.53L5.58842 20.2505H8.56488V14.0391C8.56488 13.6249 8.90066 13.2891 9.31488 13.2891H14.6833C15.0975 13.2891 15.4333 13.6249 15.4333 14.0391V20.2505H18.4098L18.5223 19.53C18.9963 16.4945 18.9554 13.4009 18.4013 10.379C18.3729 10.2245 18.2967 10.0828 18.1833 9.97406L13.5569 5.53472ZM9.40271 4.4524C10.8537 3.06014 13.1445 3.06014 14.5955 4.4524L19.2219 8.89174C19.5625 9.21853 19.7915 9.64422 19.8767 10.1085C20.4612 13.2961 20.5044 16.5594 20.0043 19.7614L19.8235 20.9189C19.7488 21.3976 19.3365 21.7505 18.852 21.7505H14.6833C14.2691 21.7505 13.9333 21.4147 13.9333 21.0005V14.7891H10.0649V21.0005C10.0649 21.4147 9.72909 21.7505 9.31488 21.7505H5.14615C4.66166 21.7505 4.24938 21.3976 4.17462 20.9189L3.99386 19.7614C3.49381 16.5594 3.53696 13.2961 4.12149 10.1085C4.20662 9.64422 4.43571 9.21853 4.77628 8.89173L9.40271 4.4524Z" fill="#7A7E80"/>
</svg>
