<svg width="40" height="40" viewBox="0 0 40 40" fill="none" xmlns="http://www.w3.org/2000/svg">
<path fill-rule="evenodd" clip-rule="evenodd" d="M21.6666 4.99999C21.6666 4.07952 20.9205 3.33333 20 3.33333C19.0795 3.33333 18.3333 4.07952 18.3333 4.99999V6.24999H17.4043C13.6958 6.24999 10.6265 9.13335 10.395 12.8346L10.0267 18.7237C9.88623 20.969 9.13242 23.1327 7.84732 24.9793C6.68618 26.6477 7.71988 28.952 9.7381 29.1942L15.4166 29.8756V31.6667C15.4166 34.198 17.4687 36.25 20 36.25C22.5313 36.25 24.5833 34.198 24.5833 31.6667V29.8756L30.2618 29.1942C32.2801 28.952 33.3138 26.6477 32.1526 24.9793C30.8675 23.1327 30.1137 20.969 29.9733 18.7237L29.6049 12.8346C29.3734 9.13335 26.3041 6.24999 22.5957 6.24999H21.6666V4.99999ZM17.4043 8.75C15.0159 8.75 13.0392 10.6069 12.8901 12.9906L12.5218 18.8797C12.3528 21.5816 11.4457 24.1853 9.8993 26.4074C9.81537 26.528 9.89009 26.6945 10.036 26.712L16.2654 27.4595C18.7462 27.7572 21.2537 27.7572 23.7345 27.4595L29.964 26.712C30.1099 26.6945 30.1846 26.528 30.1006 26.4074C28.5542 24.1853 27.6471 21.5816 27.4781 18.8797L27.1098 12.9906C26.9607 10.6069 24.984 8.75 22.5957 8.75H17.4043ZM20 33.75C18.8494 33.75 17.9166 32.8173 17.9166 31.6667V30.4167H22.0833V31.6667C22.0833 32.8173 21.1506 33.75 20 33.75Z" fill="#7A7E80"/>
</svg>
