<svg width="21" height="20" viewBox="0 0 21 20" fill="none" xmlns="http://www.w3.org/2000/svg">
<path fill-rule="evenodd" clip-rule="evenodd" d="M15.6731 3.70178C13.0729 1.65538 9.32161 1.89515 6.81699 3.42426C2.50041 6.05974 1.94046 12.6387 5.0237 15.6005C8.42342 18.8661 13.0637 18.079 15.3761 15.9898C18.3732 13.2819 19.6543 8.82338 17.0744 5.50242" fill="white"/>
<path d="M15.6731 3.70178C13.0729 1.65538 9.32161 1.89515 6.81699 3.42426C2.50041 6.05974 1.94046 12.6387 5.0237 15.6005C8.42342 18.8661 13.0637 18.079 15.3761 15.9898C18.3732 13.2819 19.6543 8.82338 17.0744 5.50242" stroke="black" stroke-miterlimit="1.5" stroke-linecap="round" stroke-linejoin="round"/>
<path d="M8.78764 7.97217C8.72022 8.38758 8.69236 8.81533 8.68164 9.2362" stroke="black" stroke-miterlimit="1.5" stroke-linecap="round" stroke-linejoin="round"/>
<path d="M12.5072 7.85547C12.5101 8.3572 12.5413 8.88094 12.4912 9.38209" stroke="black" stroke-miterlimit="1.5" stroke-linecap="round" stroke-linejoin="round"/>
<path d="M6.8125 11.4939C6.937 11.9609 7.21513 12.3697 7.55541 12.7058C9.2242 14.3547 12.3405 13.8395 13.5299 11.8493" stroke="black" stroke-miterlimit="1.5" stroke-linecap="round" stroke-linejoin="round"/>
</svg>
