<svg width="40" height="40" viewBox="0 0 40 40" fill="none" xmlns="http://www.w3.org/2000/svg">
<path fill-rule="evenodd" clip-rule="evenodd" d="M14.9133 17.1786C15.1421 16.9479 14.5487 14.2433 14.4415 13.1653C14.1252 9.98688 13.9602 6.83355 13.9602 3.63492C13.9602 2.50476 13.887 0.699062 15.1634 0.11588C16.7604 -0.613837 17.3284 2.31242 17.4893 3.04829C18.1858 6.23067 17.724 12.9427 21.5801 14.7048C22.9206 15.3175 33.2762 11.8601 34.7345 11.4791C36.5363 11.0087 37.6411 10.8173 39.271 11.3141C40.1888 11.5936 40.1926 13.5052 39.5472 13.8985C36.9427 15.4855 33.7049 16.6415 30.8846 17.9305C27.857 19.3141 26.1708 19.186 25.6709 22.8425C25.4055 24.7822 26.3788 26.5302 26.874 28.3406C27.4458 30.4315 27.7384 32.4458 27.9969 34.5721C28.1747 36.0331 28.4175 38.5865 27.195 39.7041C25.7367 41.0369 24.287 37.4765 24.0666 36.7716C22.4235 31.5149 22.2125 26.0251 17.2486 22.6226C16.1964 21.9012 14.1389 22.3618 12.9975 22.6226C11.7604 22.9051 4.27585 25.6129 1.76805 25.9948C0.41378 26.2012 -0.357125 24.6017 0.163996 23.6488C0.71368 22.644 3.32441 21.9478 4.41515 21.4496C5.82601 20.8048 7.30369 20.2894 8.74634 19.6899C10.7966 18.8383 13.8915 18.2098 14.9133 17.1786Z" fill="#FFBA03"/>
</svg>
