<svg width="40" height="40" viewBox="0 0 40 40" fill="none" xmlns="http://www.w3.org/2000/svg">
<path fill-rule="evenodd" clip-rule="evenodd" d="M8.93431 23.1859C8.39537 24.0873 7.05685 27.3892 6.18926 29.5196C5.29251 31.7221 4.31528 33.9037 3.64179 36.1812C3.58523 36.3725 4.06587 36.1844 4.24577 36.0913C4.57566 35.921 4.84974 35.6606 5.12507 35.4147C5.59051 34.9996 5.99366 34.5206 6.46434 34.111C8.45692 32.3782 13.7965 27.8046 16.2259 26.4061C17.6698 25.5748 19.7421 28.8018 20.1072 29.281C22.6965 32.6813 25.4879 36.8541 28.4572 39.9762C28.5691 40.0936 28.727 39.7471 28.748 39.5883C28.818 39.063 28.7629 38.5277 28.7201 37.9997C28.6269 36.8537 28.5783 35.6966 28.3396 34.571C28.2898 34.3356 26.1771 26.8342 25.9344 25.3421C25.825 24.6699 25.5848 23.9222 25.8699 23.3009C26.2025 22.5765 26.9909 22.1441 27.628 21.6517C30.4981 19.4331 33.6331 17.5614 36.6899 15.596C36.9717 15.4147 40.2632 13.9719 39.9831 12.9508C39.705 11.9379 36.9998 12.2366 36.5723 12.2608C31.0189 12.576 30.8744 12.47 25.517 13.986C24.0046 14.4138 22.6003 15.2237 21.048 15.481C20.7968 15.5224 20.8559 15.0085 20.8497 14.7595C20.8412 14.4016 20.9229 14.0452 21.0049 13.6965C21.1462 13.0955 21.3654 12.5141 21.5184 11.9158C22.2816 8.93018 23.0114 5.93656 23.753 2.94587C23.878 2.44153 24.4205 0.638588 24.1058 0.0706598C23.9921 -0.134486 23.6206 0.158612 23.4285 0.297244C23.0408 0.576944 22.7184 0.937291 22.4065 1.29666C21.884 1.8987 21.348 2.49952 20.9304 3.17587C19.2062 5.96799 17.5654 8.81031 15.9907 11.6858C15.9209 11.8132 14.7571 15.0168 14.4618 15.136C13.7342 15.4293 12.8978 14.9418 12.1294 14.7754C9.65739 14.2396 5.07897 12.9361 2.5933 12.4776C1.77778 12.327 0.62539 11.6222 0.113604 12.2608C-0.355077 12.8457 0.749475 13.621 1.19349 14.2238C2.13683 15.5041 3.21771 16.6821 4.25873 17.8874C5.79807 19.6696 8.56779 22.3268 8.93431 23.1859Z" fill="#A85E2D"/>
</svg>
