<svg width="40" height="40" viewBox="0 0 40 40" fill="none" xmlns="http://www.w3.org/2000/svg">
<path fill-rule="evenodd" clip-rule="evenodd" d="M14.3278 15.6386C13.67 14.2373 13.3532 13.782 12.8871 12.5199C11.9324 9.93462 10.7043 7.46191 9.76556 4.89168C9.50509 4.1785 8.7805 2.04201 8.32482 1.5622C8.31544 1.55224 8.31544 1.53 8.32482 1.52004C8.51822 1.31645 9.50556 1.21976 9.80559 1.14075C10.7098 0.902715 11.4286 0.412539 12.2067 0.00286925C12.3041 -0.0484225 12.6638 0.604011 12.687 0.677131C13 1.66603 13.4364 2.59277 13.8876 3.54299C15.3234 6.56738 16.732 9.61832 18.1697 12.6464C18.3285 12.9808 19.4026 15.6386 19.8104 15.6386C19.8435 15.6386 19.7356 14.9294 19.7304 14.88C19.6839 14.4388 19.6904 13.9759 19.6904 13.5313C19.6904 12.1983 19.6562 10.8568 19.7304 9.52761C19.8523 7.34596 19.9705 5.18499 19.9705 2.99513C19.9705 2.60489 19.7776 0.409053 19.9305 0.0871104C19.9628 0.0192195 20.2554 0.207372 20.2907 0.213597C20.8884 0.318504 21.5298 0.360915 22.1316 0.424325C22.5354 0.466819 24.0335 0.024946 24.3327 0.34C24.4833 0.498689 24.3727 3.48581 24.3727 3.88021C24.3727 6.91214 24.3732 9.95869 24.5328 12.9835C24.5628 13.5531 24.0564 16.1715 24.4558 16.5921C24.4652 16.602 25.2075 15.3113 25.3332 15.0908C25.8326 14.2142 26.5815 13.4235 27.214 12.6464C28.9093 10.5636 30.6961 8.43139 32.5367 6.49318C33.1378 5.86 33.6801 5.11917 34.2975 4.51239C34.6631 4.15302 35.378 3.41659 35.378 3.41659C35.9364 4.72879 38.0715 5.58254 39.0598 6.49318C39.3301 6.74225 39.6743 7.0163 39.9802 7.2096C40.1626 7.32479 39.0305 8.5268 38.6997 8.97975C37.795 10.2182 36.3242 11.288 35.1379 12.2249C32.5515 14.2678 29.9288 16.1843 27.4141 18.3359C27.2259 18.4969 25.053 20.3992 25.053 20.401C25.053 20.4712 25.1864 20.401 25.2531 20.401C25.5324 20.401 25.8142 20.4559 26.0935 20.4853C26.7466 20.5541 27.4078 20.6895 28.0545 20.7803C30.422 21.1127 32.7232 21.856 35.0979 22.2133C35.3699 22.2542 37.4796 22.3192 37.5791 22.424C37.6188 22.4657 37.5137 22.7992 37.4991 22.8454C37.1888 23.8258 37.1471 24.8931 36.8587 25.8799C36.7284 26.3261 36.6253 26.7721 36.5386 27.2285C36.5244 27.3033 36.4289 27.9715 36.3785 27.945C35.1413 27.2935 33.9289 27.0907 32.5367 26.7649C30.744 26.3454 28.9824 25.6386 27.214 25.1213C26.1419 24.8076 25.0371 24.3992 23.9725 24.0255C23.7527 23.9484 22.4117 23.4236 22.4117 23.5197C22.4117 23.9425 22.8784 24.7256 22.932 25.2898C23.1214 27.2848 23.3934 29.3865 23.9325 31.3165C24.2624 32.4982 24.7693 33.6835 24.973 34.8989C25.1044 35.6836 26.0935 37.554 26.0935 38.6203C25.6248 39.1061 21.8362 40.2353 21.5713 39.9563C21.5029 39.8842 21.5909 39.5117 21.5713 39.4084C21.4071 38.5435 21.2452 37.6641 21.0511 36.7954C20.3154 33.5026 19.9313 30.1728 19.3302 26.8492C19.2272 26.2793 19.3499 23.1285 19.0118 22.7723C18.9891 22.7484 18.4737 23.3304 18.4498 23.3933C18.3221 23.7295 18.2143 23.9819 18.0096 24.2784C17.5006 25.0154 16.8855 25.7316 16.3287 26.4277C14.129 29.1787 11.5709 31.9186 8.92512 34.1824C8.16168 34.8357 7.33354 35.5923 6.68407 36.374C6.59761 36.478 5.78862 37.5803 5.76364 37.554C5.39189 37.1625 3.40925 33.9438 3.16234 33.4238C3.08936 33.27 2.47503 32.2163 2.522 32.1173C2.8586 31.4084 3.82821 30.9267 4.40297 30.4315C6.80315 28.3634 9.48223 26.4405 12.0867 24.6577C13.1624 23.9212 14.2079 23.1058 15.2883 22.3818C15.402 22.3055 16.5288 21.8433 16.5288 21.7075C16.5288 21.7026 15.5402 21.3885 15.4884 21.3703C14.2764 20.9449 12.8277 20.9345 11.5665 20.8646C8.77294 20.7098 5.8828 20.4573 3.08235 20.6539C2.91204 20.6659 0.124746 20.8687 0.0408125 20.7803C-0.129497 20.601 0.286071 19.5311 0.320984 19.3474C0.50942 18.355 0.992528 15.3199 1.36144 14.5428C1.41487 14.4304 2.94064 14.376 3.48247 14.3321C5.93631 14.1333 8.25712 14.6673 10.686 14.8379C11.4088 14.8886 12.5582 14.9176 13.2072 15.2593C13.4719 15.3987 13.7293 15.4144 14.0076 15.5122C14.0639 15.532 14.4478 15.6386 14.3278 15.6386Z" fill="#42535D"/>
</svg>
