<svg width="32" height="32" viewBox="0 0 32 32" fill="none" xmlns="http://www.w3.org/2000/svg">
<path fill-rule="evenodd" clip-rule="evenodd" d="M8.33331 7.33333C8.33331 4.9401 10.2734 3 12.6666 3C14.0069 3 15.2051 3.60849 16 4.56429C16.7949 3.60849 17.993 3 19.3333 3C21.7265 3 23.6666 4.9401 23.6666 7.33333C23.6666 8.19243 23.4166 8.99313 22.9854 9.66667H24C26.025 9.66667 27.6666 11.3083 27.6666 13.3333V16C27.6666 17.0722 26.9435 17.9755 25.9582 18.2487C26.1503 20.6842 26.0391 23.1355 25.626 25.5463C25.3793 26.9858 24.2101 28.0886 22.7586 28.2509L21.5393 28.3871C17.8579 28.7986 14.1421 28.7986 10.4606 28.3871L9.24132 28.2509C7.78983 28.0886 6.62068 26.9858 6.374 25.5463C5.9609 23.1355 5.84964 20.6842 6.04172 18.2487C5.05651 17.9755 4.33331 17.0722 4.33331 16V13.3333C4.33331 11.3083 5.97494 9.66667 7.99998 9.66667H9.01452C8.58331 8.99313 8.33331 8.19243 8.33331 7.33333ZM15 7.33333C15 6.04467 13.9553 5 12.6666 5C11.378 5 10.3333 6.04467 10.3333 7.33333C10.3333 8.622 11.378 9.66667 12.6666 9.66667C13.9553 9.66667 15 8.622 15 7.33333ZM19.3333 9.66667C20.622 9.66667 21.6666 8.622 21.6666 7.33333C21.6666 6.04467 20.622 5 19.3333 5C18.0446 5 17 6.04467 17 7.33333C17 8.622 18.0446 9.66667 19.3333 9.66667ZM6.33331 13.3333C6.33331 12.4129 7.07951 11.6667 7.99998 11.6667H15V16.3333H6.66665C6.48255 16.3333 6.33331 16.1841 6.33331 16V13.3333ZM17 18.3333H23.9586C24.1457 20.6275 24.0439 22.9373 23.6547 25.2085C23.5585 25.7699 23.1026 26.2 22.5365 26.2632L21.3172 26.3995C19.8821 26.5599 18.4415 26.6551 17 26.6853V18.3333ZM17 16.3333H25.3333C25.5174 16.3333 25.6666 16.1841 25.6666 16V13.3333C25.6666 12.4129 24.9205 11.6667 24 11.6667H17V16.3333ZM15 18.3333V26.6853C13.5584 26.6551 12.1179 26.5599 10.6828 26.3995L9.46347 26.2632C8.89742 26.2 8.44147 25.7699 8.34527 25.2085C7.95608 22.9373 7.85429 20.6275 8.04136 18.3333H15Z" fill="#7A7E80"/>
</svg>
