<svg width="332" height="185" viewBox="0 0 332 185" fill="none" xmlns="http://www.w3.org/2000/svg">
<g filter="url(#filter0_d_382_21631)">
<path fill-rule="evenodd" clip-rule="evenodd" d="M310.126 163.968C310.025 163.968 314.002 16.9202 315 16.3768C295.958 16.1218 280.963 15.8065 264.65 16.153C213.71 17.2333 162.512 17.3742 111.55 17.1074C89.5494 16.9934 67.5741 16.7986 45.5716 17.1096C38.3894 17.2118 31.2071 17.2892 24.0234 17.2763C23.7538 17.2752 15.496 16.9815 15.4308 17.612C15.0612 21.1326 15.196 26.166 15.0718 29.6145C14.7991 37.185 15.3521 44.7652 15.9066 52.3228C18.6652 89.9355 15.6884 128.236 20.9648 165.716C21.1012 166.675 250.2 164.981 310.126 163.968Z" fill="#F4F4F4"/>
<path fill-rule="evenodd" clip-rule="evenodd" d="M310.126 163.968C310.025 163.968 314.002 16.9202 315 16.3768C295.958 16.1218 280.963 15.8065 264.65 16.153C213.71 17.2333 162.512 17.3742 111.55 17.1074C89.5494 16.9934 67.5741 16.7986 45.5716 17.1096C38.3894 17.2118 31.2071 17.2892 24.0234 17.2763C23.7538 17.2752 15.496 16.9815 15.4308 17.612C15.0612 21.1326 15.196 26.166 15.0718 29.6145C14.7991 37.185 15.3521 44.7652 15.9066 52.3228C18.6652 89.9355 15.6884 128.236 20.9648 165.716C21.1012 166.675 250.2 164.981 310.126 163.968Z" stroke="black" stroke-miterlimit="1.5" stroke-linecap="round" stroke-linejoin="round"/>
</g>
<path fill-rule="evenodd" clip-rule="evenodd" d="M306.86 1.74216C306.908 2.18618 307.003 2.78848 307.06 3.08245C307.193 3.74558 307.26 3.7187 306.263 3.37442C304.448 2.73936 304.087 3.25992 304.794 5.50117L304.941 5.97118C303.862 5.51001 303.508 5.36006 302.972 5.30189C302.074 5.21826 301.901 5.88972 302.381 7.64627C302.598 8.45182 302.677 8.41542 301.599 8.01815C299.547 7.24475 299.234 7.34959 299.773 9.47679L300.147 11.1612C297.873 10.3294 296.448 9.43803 298.434 12.269C300.236 14.8295 313.467 31.208 317.666 36.574C319.347 38.722 319.62 38.8445 319.903 38.6206C320.065 38.492 320.091 37.5469 319.957 36.6363L319.883 36.1219L320.6 36.3486C322.556 36.9634 322.915 36.6009 322.288 34.6346C322.102 34.0527 321.944 33.4477 322 33.4686C322.056 33.4896 322.618 33.8394 323.189 34.078C325.018 34.8313 325.321 34.1621 324.716 32.3475C324.378 31.3259 324.342 31.3673 325.25 31.8468C327.122 32.827 327.481 32.2463 327.03 30.4148C326.729 29.2066 327.081 29.5029 327.629 29.837C328.203 30.1868 328.941 30.4494 329.35 30.3858C330.627 30.1174 330.62 29.5029 330.301 29.1002C326.512 24.1653 310.548 3.39569 309.373 2.05926C307.634 0.0610623 306.655 -0.0627624 306.86 1.74216ZM303.731 6.64294C304.191 6.87798 304.745 7.19484 304.97 7.34266C306.081 8.09136 306.494 7.40021 305.953 5.67849C305.452 4.06867 305.47 4.0544 306.709 4.76688C307.469 5.20753 307.858 5.29061 308.135 5.07142C308.448 4.82373 308.452 4.74228 308.18 3.45916C308.04 2.78803 308.052 2.06067 308.077 2.06717C308.151 2.08661 329.03 27.9292 329.208 29.1175C329.356 29.404 329.264 29.386 328.123 28.9342C325.624 27.9546 325.788 28.8467 326.146 31.1143C326.146 31.1143 325.691 31.0455 325.541 30.9555C324.138 30.521 323.332 30.216 323.764 31.7377L324.106 33.3801L322.89 33.0542C321.888 32.7402 321.373 32.2117 321.075 32.5776C320.802 32.9117 321.091 33.2028 321.365 35.4959C321.026 35.4387 320.414 35.5093 319.945 35.386C319.175 35.2919 319.045 35.4608 319.076 36.7112C319.108 37.9616 300.533 13.7215 299.94 12.9728C299.347 12.2241 298.647 11.241 299.312 11.5743C299.878 11.8561 300.571 12.2717 300.944 11.9764C301.244 11.7253 301.258 11.2848 300.964 10.3703C300.718 9.60134 300.608 9.15385 300.5 8.77025C300.879 8.9267 302.362 9.55082 302.652 9.60791C303.121 9.70566 303.55 9.03493 303.51 8.92802C303.49 8.87383 303.22 7.58119 303.003 6.76286C302.827 6.1203 302.748 6.13116 303.731 6.64294Z" fill="#F9AA4C"/>
<path d="M299.072 11.9803L309.676 3.58568L328.918 27.8911L318.314 36.2858L308.398 24.3662L299.072 11.9803Z" fill="#F9AA4C"/>
<rect x="298.451" y="11.1964" width="0.751357" height="2" transform="rotate(-38.3674 298.451 11.1964)" fill="#F9AA4C"/>
<path d="M299.893 8.78L300.776 8.08045L302.312 9.41535L302.638 10.4326L301.46 11.3653L299.893 8.78Z" fill="#F9AA4C"/>
<path d="M302.559 7.30648L302.822 5.82288L303.721 5.74853L304.963 7.31662L303.195 8.71573L302.559 7.30648Z" fill="#F9AA4C"/>
<path d="M305.2 5.59861L305.179 3.95752L306.683 4.04201L307.909 4.9849L305.552 6.85037L305.2 5.59861Z" fill="#F9AA4C"/>
<path d="M307.607 3.99887L307.841 1.7228L309.055 2.8017L309.675 3.58563L307.908 4.98474L307.607 3.99887Z" fill="#F9AA4C"/>
<path d="M317.693 35.5017L318.871 34.569L319.508 35.9782L318.934 37.0698L317.693 35.5017Z" fill="#F9AA4C"/>
<path d="M319.492 35.3531L321.259 33.954L321.749 35.4799L321.307 35.8297L319.492 35.3531Z" fill="#F9AA4C"/>
<path d="M322.438 33.0212L324.205 31.6221L324.694 33.148L324.252 33.4978L322.438 33.0212Z" fill="#F9AA4C"/>
<path d="M324.793 31.1558L326.561 29.7567L327.05 31.2825L326.608 31.6323L324.793 31.1558Z" fill="#F9AA4C"/>
<path d="M327.15 29.2903L328.918 27.8912L329.407 29.417L328.965 29.7668L327.15 29.2903Z" fill="#F9AA4C"/>
<path fill-rule="evenodd" clip-rule="evenodd" d="M9.4956 149.865C9.61472 150.295 9.80572 150.874 9.909 151.155C10.1477 151.788 10.2093 151.751 9.1699 151.572C7.27657 151.238 7.00406 151.81 8.064 153.908L8.28484 154.348C7.14486 154.067 6.77159 153.976 6.23377 154.005C5.33375 154.068 5.27106 154.758 6.02862 156.414C6.37262 157.174 6.4446 157.126 5.31647 156.908C3.16725 156.476 2.87484 156.63 3.74993 158.642L4.3909 160.244C2.01266 159.79 0.462409 159.141 2.8801 161.614C5.07165 163.85 20.7731 177.877 25.7835 182.495C27.7892 184.343 28.0786 184.42 28.3215 184.153C28.4611 184 28.3335 183.063 28.0546 182.186L27.8982 181.691L28.6432 181.799C30.672 182.09 30.9679 181.674 30.032 179.835C29.7539 179.29 29.5009 178.719 29.5593 178.73C29.6177 178.742 30.229 178.997 30.8308 179.14C32.7582 179.588 32.9485 178.879 32.059 177.185C31.5597 176.232 31.531 176.279 32.5048 176.605C34.511 177.27 34.7711 176.639 34.03 174.905C33.5382 173.761 33.9331 173.996 34.528 174.238C35.1508 174.49 35.9214 174.63 36.3154 174.501C37.5326 174.03 37.4261 173.425 37.0464 173.079C32.5102 168.821 13.4021 150.901 12.0263 149.772C9.98797 148.081 9.00167 148.117 9.4956 149.865ZM7.19856 155.206C7.69065 155.364 8.28883 155.587 8.53448 155.697C9.75225 156.256 10.0475 155.508 9.23586 153.896C8.4815 152.388 8.497 152.371 9.8353 152.874C10.6565 153.186 11.0536 153.205 11.2914 152.944C11.5602 152.649 11.5511 152.568 11.0757 151.346C10.8294 150.706 10.7233 149.987 10.7488 149.989C10.8251 149.996 35.6027 172.129 35.9699 173.273C36.1627 173.531 36.0684 173.529 34.8696 173.267C32.2458 172.704 32.5517 173.557 33.2709 175.738C33.2709 175.738 32.8104 175.743 32.6483 175.679C31.1937 175.476 30.3491 175.305 31.0204 176.737L31.6231 178.303L30.3709 178.178C29.331 178.03 28.7377 177.591 28.5031 178C28.2867 178.374 28.6196 178.615 29.2596 180.834C28.9158 180.832 28.324 181 27.8406 180.954C27.0658 180.986 26.9644 181.174 27.1975 182.403C27.4306 183.631 5.18535 162.708 4.47953 162.065C3.77372 161.422 2.92368 160.565 3.63399 160.786C4.23773 160.973 4.98864 161.272 5.30913 160.92C5.56526 160.624 5.50741 160.187 5.0704 159.331C4.70296 158.612 4.52264 158.188 4.35418 157.827C4.75288 157.921 6.317 158.297 6.61237 158.307C7.09099 158.327 7.40648 157.596 7.35014 157.497C7.32159 157.447 6.84636 156.215 6.49996 155.442C6.22274 154.836 6.14598 154.86 7.19856 155.206Z" fill="#F9AA4C"/>
<path d="M3.46275 161.226L12.572 151.229L35.4856 172.109L26.3763 182.106L14.6665 171.944L3.46275 161.226Z" fill="#F9AA4C"/>
<rect x="2.72388" y="160.552" width="0.751357" height="2" transform="rotate(-47.6589 2.72388 160.552)" fill="#F9AA4C"/>
<path d="M3.75597 157.935L4.51507 157.102L6.2464 158.171L6.73252 159.123L5.72037 160.233L3.75597 157.935Z" fill="#F9AA4C"/>
<path d="M6.14917 156.05L6.16913 154.544L7.04477 154.325L8.52307 155.672L7.00485 157.338L6.14917 156.05Z" fill="#F9AA4C"/>
<path d="M8.48016 153.938L8.19403 152.322L9.69228 152.163L11.054 152.896L9.02975 155.117L8.48016 153.938Z" fill="#F9AA4C"/>
<path d="M10.5968 151.971L10.4608 149.687L11.8325 150.556L12.5716 151.229L11.0534 152.895L10.5968 151.971Z" fill="#F9AA4C"/>
<path d="M25.637 181.432L26.6491 180.322L27.5048 181.61L27.1153 182.779L25.637 181.432Z" fill="#F9AA4C"/>
<path d="M27.3887 180.995L28.9069 179.329L29.6361 180.756L29.2565 181.172L27.3887 180.995Z" fill="#F9AA4C"/>
<path d="M29.9189 178.218L31.4372 176.552L32.1663 177.979L31.7868 178.396L29.9189 178.218Z" fill="#F9AA4C"/>
<path d="M31.9429 175.997L33.4611 174.331L34.1903 175.758L33.8107 176.174L31.9429 175.997Z" fill="#F9AA4C"/>
<path d="M33.9675 173.775L35.4857 172.109L36.2149 173.536L35.8354 173.953L33.9675 173.775Z" fill="#F9AA4C"/>
<defs>
<filter id="filter0_d_382_21631" x="11.5" y="13.5" width="309" height="159" filterUnits="userSpaceOnUse" color-interpolation-filters="sRGB">
<feFlood flood-opacity="0" result="BackgroundImageFix"/>
<feColorMatrix in="SourceAlpha" type="matrix" values="0 0 0 0 0 0 0 0 0 0 0 0 0 0 0 0 0 0 127 0" result="hardAlpha"/>
<feOffset dx="1" dy="2"/>
<feGaussianBlur stdDeviation="2"/>
<feComposite in2="hardAlpha" operator="out"/>
<feColorMatrix type="matrix" values="0 0 0 0 0 0 0 0 0 0 0 0 0 0 0 0 0 0 0.25 0"/>
<feBlend mode="normal" in2="BackgroundImageFix" result="effect1_dropShadow_382_21631"/>
<feBlend mode="normal" in="SourceGraphic" in2="effect1_dropShadow_382_21631" result="shape"/>
</filter>
</defs>
</svg>
