<svg width="16" height="16" viewBox="0 0 16 16" fill="none" xmlns="http://www.w3.org/2000/svg">
<path fill-rule="evenodd" clip-rule="evenodd" d="M0.0958115 15.8997C0.0958115 15.7591 0.146931 14.4712 0.0958115 13.9746C-0.0225699 12.8243 -0.0171094 11.6373 0.0362957 10.485C0.146642 8.10469 0.31725 5.72041 0.0741367 3.34198C-0.0160747 2.45941 0.104279 1.56787 0.328124 0.699133C0.410541 0.379218 1.10396 -0.0198603 1.72173 0.000767968C2.33168 0.0211428 4.18322 0.805388 4.79555 1.01488C5.92517 1.40136 6.97499 1.87091 8.09089 2.25778C9.40304 2.71266 10.6836 3.10974 11.8076 3.784C12.684 4.30971 13.5984 4.84133 13.4012 5.73375C13.311 6.14202 12.4736 6.41416 12.0075 6.54636C10.4745 6.98107 8.76899 6.86839 7.16171 7.01755C6.54767 7.07455 5.91987 7.17354 5.33042 7.30775C5.31341 7.31163 4.84715 7.39615 4.89817 7.44441C4.97258 7.51477 5.37959 7.5019 5.48166 7.50925C6.10398 7.55415 6.71775 7.61235 7.32924 7.70732C9.60295 8.06048 11.2424 8.56187 13.4012 9.15857C13.9457 9.30907 15.9744 9.68989 15.9997 10.2034C16.0311 10.8415 13.8591 11.3377 13.1906 11.4906C10.8798 12.0193 8.95483 12.0369 6.55667 12.0061C6.08442 12.0001 3.58133 11.8973 3.229 12.0095C3.03528 12.0712 2.7237 12.1712 2.65629 12.3304C2.4846 12.7361 2.98474 14.3907 3.02905 14.9597C3.03218 14.9998 3.21077 15.7185 3.09189 15.8997C3.09189 16.0263 0.0958115 16.0404 0.0958115 15.8997Z" fill="#FF9847"/>
</svg>
