<svg width="32" height="32" viewBox="0 0 32 32" fill="none" xmlns="http://www.w3.org/2000/svg">
<path fill-rule="evenodd" clip-rule="evenodd" d="M0.191623 31.7994C0.191623 31.5181 0.293863 28.9424 0.191623 27.9493C-0.0451398 25.6486 -0.0342189 23.2745 0.0725914 20.9701C0.293285 16.2094 0.634501 11.4408 0.148273 6.68396C-0.0321494 4.91882 0.208558 3.13574 0.656247 1.39827C0.821082 0.758435 2.20792 -0.0397206 3.44345 0.00153594C4.66335 0.0422856 8.36644 1.61078 9.5911 2.02976C11.8503 2.80272 13.95 3.74182 16.1818 4.51556C18.8061 5.42533 21.3672 6.21947 23.6152 7.568C25.3679 8.61941 27.1968 9.68266 26.8024 11.4675C26.622 12.284 24.9472 12.8283 24.0149 13.0927C20.949 13.9621 17.538 13.7368 14.3234 14.0351C13.0953 14.1491 11.8397 14.3471 10.6608 14.6155C10.6268 14.6233 9.6943 14.7923 9.79635 14.8888C9.94516 15.0295 10.7592 15.0038 10.9633 15.0185C12.208 15.1083 13.4355 15.2247 14.6585 15.4146C19.2059 16.121 22.4848 17.1237 26.8024 18.3171C27.8914 18.6181 31.9487 19.3798 31.9993 20.4068C32.0623 21.683 27.7182 22.6754 26.3811 22.9813C21.7597 24.0386 17.9097 24.0738 13.1133 24.0122C12.1688 24.0001 7.16267 23.7947 6.45801 24.0191C6.07056 24.1425 5.4474 24.3424 5.31259 24.6609C4.96921 25.4722 5.96947 28.7815 6.0581 29.9193C6.06435 29.9995 6.42155 31.437 6.18377 31.7994C6.18377 32.0526 0.191623 32.0807 0.191623 31.7994Z" fill="#FF9847"/>
</svg>
