<svg width="16" height="16" viewBox="0 0 16 16" fill="none" xmlns="http://www.w3.org/2000/svg">
<path fill-rule="evenodd" clip-rule="evenodd" d="M7.83305 15.8179C7.52176 15.9813 6.79647 16.1189 6.60796 15.8403C6.3505 15.4598 6.20708 13.9897 6.06164 13.5008C6.03442 13.4092 6.01782 13.152 5.92106 13.1064C5.73867 13.0205 5.41306 13.0504 5.21013 12.9938C4.31318 12.7436 3.34701 12.5918 2.48267 12.2389C2.17893 12.1149 1.43529 11.8269 1.36602 11.3939C1.19448 10.322 3.10399 10.5978 3.6516 10.5978C3.88104 10.5978 4.11034 10.6077 4.33849 10.5791C4.4766 10.5617 5.60528 10.5022 5.46316 10.3162C5.1868 9.95453 4.25982 9.71115 3.86448 9.57634C2.93033 9.25784 1.99728 8.83259 1.17727 8.2657C0.808556 8.0108 -0.0690722 7.58482 0.00433774 7.00015C0.0315982 6.78299 0.387057 6.58313 0.546541 6.4819C1.52269 5.86223 2.32958 6.60695 3.25387 6.91005C3.61244 7.02761 3.99912 7.15788 4.37863 7.15788C4.40006 7.15788 4.43904 7.17977 4.44292 7.15788C4.47907 6.95444 3.56354 5.99594 3.4306 5.83978C2.70487 4.98714 1.92999 3.92532 1.63515 2.8092C1.57539 2.58295 1.09304 1.44294 1.67531 1.31447C2.08774 1.22347 2.56861 1.73821 2.68353 1.83281C3.70319 2.67199 4.72663 3.4952 5.55557 4.5479C5.88747 4.96936 6.19487 5.39859 6.55578 5.79469C6.57737 5.81838 6.8621 6.16345 6.92526 6.08762C7.02314 5.97011 6.9644 4.90362 6.96141 4.73197C6.95537 4.38363 6.94539 4.03647 6.94539 3.68793C6.94539 2.73222 6.6364 0.0382867 8.13835 0.000139384C8.56651 -0.0107492 8.66422 0.618988 8.75695 0.954064C9.08941 2.15532 9.11411 3.39614 9.16269 4.6381C9.17849 5.04229 9.17469 5.44644 9.17469 5.85101V6.3918C9.17469 5.84842 9.48161 5.30375 9.713 4.83329C10.2928 3.65452 11.1397 2.4886 12.1311 1.64506C12.8923 0.997303 13.9564 0.628167 14.3444 1.85903C14.818 3.36201 12.8389 5.25026 12.0628 6.33548C11.7241 6.80896 11.3934 7.28557 11.0747 7.77378C10.9832 7.91388 10.8909 8.05385 10.8055 8.19814C10.7631 8.26977 10.7239 8.34377 10.6891 8.41966C10.6827 8.4336 10.658 8.47135 10.669 8.46099C11.5385 7.64174 13.483 7.40117 14.5894 7.34195C14.9797 7.32106 15.8725 7.20528 15.9511 7.81887C16.0088 8.27014 15.6421 8.67673 15.3366 8.94545C14.5632 9.6256 13.5831 9.90926 12.6091 10.1134C12.2122 10.1965 11.8161 10.2817 11.4282 10.4025C11.409 10.4085 10.9887 10.553 11.0064 10.5753C11.0487 10.6285 12.0084 10.6016 12.1029 10.6016C13.0391 10.6016 14.0498 10.4555 14.971 10.6542C15.2434 10.7129 16.2081 10.9422 15.9594 11.4535C15.7586 11.8663 14.4735 12.2153 14.0913 12.3403C12.9128 12.7256 11.7658 12.9143 10.5364 13.0501C10.0695 13.1017 9.52745 13.1476 9.05825 13.0801C8.90726 13.0583 8.2853 12.8872 8.21876 13.0125C8.18323 13.0795 8.11342 14.0728 8.09018 14.233C8.04763 14.5264 8.14436 15.6546 7.83305 15.8179Z" fill="#916F66"/>
</svg>
