<svg width="32" height="32" viewBox="0 0 32 32" fill="none" xmlns="http://www.w3.org/2000/svg">
<path fill-rule="evenodd" clip-rule="evenodd" d="M15.6661 31.6358C15.0435 31.9625 13.5929 32.2378 13.2159 31.6805C12.701 30.9195 12.4142 27.9794 12.1233 27.0015C12.0688 26.8185 12.0356 26.304 11.8421 26.2128C11.4773 26.041 10.8261 26.1007 10.4203 25.9875C8.62636 25.4872 6.69402 25.1835 4.96535 24.4778C4.35786 24.2298 2.87059 23.6538 2.73203 22.7879C2.38895 20.6441 6.20799 21.1957 7.3032 21.1957C7.76208 21.1957 8.22068 21.2154 8.67699 21.1581C8.9532 21.1235 11.2106 21.0045 10.9263 20.6324C10.3736 19.9091 8.51965 19.4223 7.72895 19.1527C5.86065 18.5157 3.99456 17.6652 2.35454 16.5314C1.61711 16.0216 -0.138144 15.1696 0.00867549 14.0003C0.0631963 13.566 0.774114 13.1663 1.09308 12.9638C3.04539 11.7245 4.65915 13.2139 6.50774 13.8201C7.22489 14.0552 7.99823 14.3158 8.75727 14.3158C8.80012 14.3158 8.87808 14.3595 8.88584 14.3158C8.95814 13.9089 7.12708 11.9919 6.8612 11.6796C5.40974 9.97429 3.85998 7.85064 3.2703 5.6184C3.15078 5.16591 2.18607 2.88587 3.35062 2.62893C4.17548 2.44695 5.13721 3.47642 5.36706 3.66562C7.40637 5.34399 9.45327 6.9904 11.1111 9.09581C11.7749 9.93873 12.3897 10.7972 13.1116 11.5894C13.1547 11.6368 13.7242 12.3269 13.8505 12.1752C14.0463 11.9402 13.9288 9.80724 13.9228 9.46394C13.9107 8.76725 13.8908 8.07294 13.8908 7.37585C13.8908 5.46443 13.2728 0.0765734 16.2767 0.000278767C17.133 -0.0214985 17.3284 1.23798 17.5139 1.90813C18.1788 4.31065 18.2282 6.79229 18.3254 9.27619C18.357 10.0846 18.3494 10.8929 18.3494 11.702V12.7836C18.3494 11.6968 18.9632 10.6075 19.426 9.66658C20.5855 7.30903 22.2794 4.97719 24.2621 3.29013C25.7846 1.99461 27.9129 1.25633 28.6887 3.71805C29.6361 6.72402 25.6779 10.5005 24.1256 12.671C23.4482 13.6179 22.7869 14.5711 22.1494 15.5476C21.9664 15.8278 21.7818 16.1077 21.611 16.3963C21.5263 16.5395 21.4477 16.6875 21.3782 16.8393C21.3654 16.8672 21.3159 16.9427 21.3379 16.922C23.077 15.2835 26.966 14.8023 29.1788 14.6839C29.9594 14.6421 31.745 14.4106 31.9021 15.6377C32.0177 16.5403 31.2842 17.3535 30.6731 17.8909C29.1263 19.2512 27.1662 19.8185 25.2182 20.2267C24.4245 20.3931 23.6323 20.5634 22.8563 20.8051C22.818 20.817 21.9774 21.1061 22.0128 21.1506C22.0974 21.2569 24.0168 21.2032 24.2059 21.2032C26.0781 21.2032 28.0996 20.911 29.9419 21.3083C30.4867 21.4258 32.4162 21.8844 31.9188 22.907C31.5172 23.7326 28.9471 24.4307 28.1826 24.6806C25.8255 25.4513 23.5316 25.8285 21.0727 26.1001C20.139 26.2033 19.0549 26.2953 18.1165 26.1602C17.8145 26.1167 16.5706 25.7743 16.4375 26.025C16.3665 26.1589 16.2268 28.1455 16.1804 28.466C16.0953 29.0529 16.2887 31.3091 15.6661 31.6358Z" fill="#916F66"/>
</svg>
