<svg width="32" height="32" viewBox="0 0 32 32" fill="none" xmlns="http://www.w3.org/2000/svg">
<path d="M9.52244 29.3863C10.1661 27.9194 10.5395 27.2096 11.1781 25.741C7.07944 24.7124 7.00281 23.3665 5.23509 21.7138C3.58935 20.1752 1.15672 18.7044 0.381477 16.8169C-0.110541 15.619 -0.323298 13.4246 0.985481 12.4305C2.55084 11.2414 5.39997 12.8564 6.5186 13.633C8.45751 14.9789 9.79418 16.6722 10.9839 18.3824C11.1793 18.6632 11.3506 18.928 11.3506 19.2445V19.1311V18.4883C11.3506 17.3558 11.2888 16.2454 11.1781 15.1153C11.0984 14.3025 11.1947 13.5011 11.3291 12.6952C11.3672 12.4665 11.4046 12.1756 11.3452 11.9465C11.2982 11.765 11.0471 11.5532 10.9192 11.3944C10.5038 10.8784 10.1292 10.371 9.83523 9.81375C8.86926 7.98248 7.98767 6.10899 8.07175 4.13409C8.11963 3.00936 8.06636 0.109153 10.5201 0.0161511C11.6038 -0.0249217 12.535 0.59819 13.0602 1.18838C13.9335 2.16979 14.2898 3.27442 14.5109 4.40635C14.5519 4.61621 14.6216 5.62825 14.9207 4.85256C15.549 3.22357 15.9595 1.75817 17.7574 0.549328C19.0247 -0.302771 21.4231 -0.148789 22.3737 0.908561C23.1177 1.73599 22.9705 2.85828 22.8475 3.79671L22.8429 3.83158C22.7128 4.82469 22.3675 5.71939 21.9315 6.66006C21.8411 6.85516 20.7145 11.4859 21.3388 10.7442C23.3203 8.38998 24.6673 6.62075 26.5325 5.74101C26.5325 5.74101 29.3311 3.97903 30.5386 4.22484C31.701 4.46148 32.1275 4.89322 31.9677 5.75253C31.7543 6.89969 30.9684 7.98503 30.3984 9.05747C29.5924 10.5736 28.9058 12.1255 27.8313 13.5649C26.746 15.0189 25.2495 16.2147 23.5871 17.3539C22.2521 18.2687 20.7402 19.0227 19.3267 19.8723C19.2369 19.9262 18.2162 20.4853 18.6742 20.4092C20.3556 20.13 22.0562 19.7526 23.7974 19.7437C25.0093 19.7375 26.2031 19.7734 27.3891 19.963C28.0025 20.0611 28.9016 20.1551 29.4007 20.4433C30.0643 20.8265 30.0968 21.6158 29.7782 22.1298C29.3458 22.8271 28.3565 23.3688 27.5245 23.8243L27.5185 23.8276C25.9202 24.7028 23.8615 25.1776 22.0178 25.741C20.4448 26.2216 18.8166 26.7909 17.1264 27.0569C16.3276 27.1827 15.3032 27.0306 15.0879 27.6846C14.6829 28.9153 14.4263 30.136 14.2412 31.3904C14.1376 32.0927 13.6253 31.9954 12.7528 31.9954C11.8456 31.9954 9.44867 31.7774 9.23662 30.9744C9.09937 30.4548 9.3072 29.8767 9.52244 29.3863Z" fill="#FFDC00"/>
</svg>
