<svg width="16" height="16" viewBox="0 0 16 16" fill="none" xmlns="http://www.w3.org/2000/svg">
<path d="M5.67966 0.000548691C6.18605 0.0227206 6.26307 0.632987 6.23854 1.09068C6.22499 1.34357 6.21238 1.62066 6.2015 1.90789L6.19165 2.18497C6.1678 2.90327 5.9795 4.01608 5.9795 4.01608C5.9795 4.01608 7.79661 6.20741 8.31269 6.20741C8.82876 6.20741 8.11789 3.697 8.23082 2.81335C8.25876 2.60307 8.28442 2.39256 8.31269 2.18231C8.37385 1.72743 8.83142 1.40348 9.33471 1.45875C9.83799 1.51403 10.1964 1.9276 10.1352 2.38249C10.1099 2.57096 10.0857 2.75957 10.062 2.94822L10.062 2.94824C9.96316 3.72284 9.82929 4.77213 9.69979 5.38936C9.59647 5.8818 9.50866 6.37677 9.40487 6.86913C9.35969 7.08343 9.30978 7.30733 9.25379 7.52163C9.48572 7.87269 10.3375 9.66821 10.761 9.31832C11.0819 9.05317 11.1299 5.45181 10.9558 4.61756C10.9558 4.18012 10.9368 3.68038 11.4134 3.52395C11.8899 3.36752 12.1704 3.35936 12.3435 3.79007C12.5818 4.38314 12.5763 5.05445 12.4724 5.67432C12.4381 5.8789 12.3899 6.13073 12.3327 6.4094C12.0394 7.83815 12.0315 10.1722 12.0315 10.5108C12.0315 10.8494 12.5127 11.3312 12.9087 11.7516C13.3612 10.4776 13.5651 8.69148 13.2423 7.38708C13.1316 6.93989 13.443 6.49629 13.9378 6.39627C14.4325 6.29624 14.9233 6.57767 15.034 7.02486C15.3256 8.20315 15.1049 9.42232 14.7898 10.5108C14.5334 11.3968 13.6317 12.847 13.904 13.1358C14.0083 13.2465 14.1015 13.3085 14.2053 13.3899L15.6821 14.5424C16.0658 14.842 16.1081 15.366 15.7766 15.7127C15.4452 16.0595 14.8655 16.0977 14.4819 15.7981C13.8058 15.2702 13.6087 14.8812 12.9087 14.5424C12.4724 14.3313 10.6825 14.2787 9.54049 14.3113C8.73277 14.3344 7.90265 14.3464 7.22276 14.3313C6.88416 14.3237 6.5678 14.3092 6.30344 14.2837C6.08769 14.2628 5.75881 14.224 5.501 14.1067C5.04818 13.9006 4.86595 13.4017 5.09397 12.9925C5.40909 12.4269 6.38993 12.7953 6.92528 12.847C8.43565 12.9928 11.9979 13.8315 11.7592 13.3899C11.3993 12.7237 10.9558 12.4196 10.5795 12.3002C9.54049 11.9703 5.16626 11.5982 3.97366 11.5035C3.49986 11.4659 3.0785 11.3318 2.75354 11.2213C2.27905 11.0599 2.03915 10.5814 2.21773 10.1525C2.3963 9.72363 2.92572 9.50681 3.40022 9.66821C3.70708 9.77259 3.92805 9.83412 4.13423 9.85048C5.63252 9.96937 9.40487 11.0239 9.40487 10.6853C9.40487 9.90867 8.34467 8.87979 8.0386 8.85782C7.58486 8.82526 6.67516 8.86008 5.97297 8.85782C5.46513 8.85619 4.95496 8.84646 4.45355 8.8369L4.45333 8.8369L3.85009 8.82593C3.61541 8.82209 3.41213 8.82617 3.18275 8.83078L3.01807 8.83398C2.72005 8.8394 2.38851 8.84224 1.96313 8.82526C1.45663 8.80504 1.06417 8.41754 1.08654 7.95975C1.10891 7.50196 1.53765 7.14724 2.04414 7.16746C2.956 7.20386 6.92528 8.10279 6.92528 7.52163C6.92528 6.86913 6.03615 5.8314 5.84738 5.88163C4.64795 6.20082 3.59812 6.08547 2.39602 6.20741C1.7862 6.26926 1.14978 6.08135 0.784716 5.45181C0.694718 5.29661 0.617115 4.98872 1.06616 4.776C2.04414 4.35655 5.7927 5.53592 5.12302 4.776C4.45333 4.01608 3.53259 3.62762 3.01807 3.29344C2.39602 3.15857 2.21773 2.94822 1.3292 3.11386C0.832663 3.20643 0.377075 3.06038 0.158825 2.72362C-0.701346 1.39637 2.21245 2.38306 2.21773 2.38249C2.08744 1.88427 1.08208 0.548596 2.21773 0.407179C2.72883 0.343534 2.37139 1.09068 3.01807 1.90789C3.66475 2.72509 4.45355 3.1278 4.89859 2.94822C5.34292 2.76892 4.86916 1.63981 4.89859 1.09068C4.92312 0.632986 5.17326 -0.0216235 5.67966 0.000548691Z" fill="#CF6F49"/>
</svg>
