<svg width="16" height="18" viewBox="0 0 16 18" fill="none" xmlns="http://www.w3.org/2000/svg">
<path d="M6.54098 16.291C6.66885 15.5004 6.76069 15.11 6.88586 14.3191C4.77306 14.3346 4.5674 13.6926 3.50473 13.1141C2.51539 12.5754 1.15365 12.1681 0.541993 11.3515C0.153801 10.8333 -0.224012 9.79774 0.285005 9.15259C0.893814 8.38096 2.47523 8.80591 3.11397 9.04169C4.22109 9.45037 5.08019 10.1026 5.87028 10.7815C6.00001 10.8929 6.11613 10.9996 6.15577 11.1529L6.14156 11.098L6.06105 10.7868C5.91922 10.2386 5.75022 9.70883 5.55508 9.17565C5.41474 8.79222 5.36098 8.39221 5.32508 7.98527C5.31489 7.86981 5.29659 7.72428 5.23914 7.62082C5.19365 7.5389 5.04556 7.46781 4.96376 7.40694C4.69806 7.2092 4.45316 7.01049 4.24109 6.77758C3.54416 6.01211 2.88278 5.21564 2.67614 4.24914C2.55845 3.69871 2.16944 2.3015 3.34556 1.94917C3.86498 1.79357 4.39378 1.97857 4.72191 2.19848C5.26755 2.56417 5.57838 3.05425 5.82716 3.57449C5.87328 3.67094 6.03377 4.1521 6.08144 3.73914C6.18155 2.87193 6.19672 2.11118 6.91561 1.30085C7.42235 0.729665 8.60258 0.50383 9.19518 0.896588C9.65893 1.20394 9.72825 1.76563 9.78622 2.23529L9.78838 2.25274C9.84979 2.74976 9.79469 3.2261 9.70145 3.73605C9.68211 3.84181 9.71675 6.22448 9.92607 5.78722C10.5904 4.3995 11.0208 3.37438 11.8135 2.71494C11.8135 2.71494 12.9475 1.51153 13.5628 1.47929C14.1551 1.44825 14.4157 1.60382 14.4459 2.0398C14.4863 2.62182 14.2418 3.24561 14.1002 3.83613C13.8999 4.67099 13.7619 5.50817 13.4221 6.3395C13.0788 7.17925 12.5042 7.94551 11.8422 8.70513C11.3105 9.31515 10.6731 9.86952 10.0953 10.4578C10.0586 10.4952 9.63452 10.8936 9.84668 10.7994C10.6256 10.4537 11.4015 10.058 12.2433 9.83562C12.8291 9.68085 13.4115 9.54869 14.0093 9.49196C14.3185 9.46262 14.7655 9.3955 15.0432 9.47249C15.4124 9.57488 15.527 9.95291 15.4372 10.2416C15.3152 10.6333 14.9042 11.0194 14.5585 11.3441L14.556 11.3464C13.8919 11.9703 12.9549 12.4579 12.1329 12.9616C11.4317 13.3912 10.7148 13.8707 9.93004 14.2112C9.55909 14.3721 9.04417 14.4268 9.02189 14.7703C8.97996 15.4168 9.00864 16.0398 9.07616 16.6702C9.11396 17.0231 8.85379 17.0402 8.43144 17.1494C7.99231 17.2631 6.80474 17.4577 6.60153 17.0956C6.47001 16.8612 6.49822 16.5554 6.54098 16.291Z" fill="#FFDC00"/>
</svg>
