<svg width="32" height="32" viewBox="0 0 32 32" fill="none" xmlns="http://www.w3.org/2000/svg">
<path d="M27.6929 0.0204242C25.1108 0.164451 23.5884 3.7203 22.6483 5.91602L22.6481 5.91653C22.4831 6.30185 22.336 6.64532 22.2043 6.92103C18.3302 15.0326 17.8549 19.1165 17.1871 19.5297C16.4774 19.9689 15.5504 16.2624 10.0954 8.83872C9.92056 8.60072 9.71936 8.30009 9.49361 7.96278C8.20794 6.04177 6.12587 2.93082 3.57279 3.4206C2.53854 3.61901 1.85714 3.81421 1.10851 4.70193C-0.130023 6.17059 -0.284553 8.09498 0.415536 10.0147C3.00889 17.1259 9.39056 22.7323 15.5776 24.8555C15.4547 26.0993 16 32.3505 16 31.9846H18.8066C18.8953 30.6105 18.6684 26.2395 18.8066 24.8479C18.8245 24.6771 18.8405 24.5061 18.8574 24.3352C24.802 20.8816 30.4721 13.5897 31.8811 5.70788C32.2479 3.65651 31.7767 1.80934 30.3195 0.673399C29.4387 -0.0132118 28.7389 -0.0379206 27.6929 0.0204242Z" fill="#3F942C"/>
</svg>
