<svg width="32" height="32" viewBox="0 0 32 32" fill="none" xmlns="http://www.w3.org/2000/svg">
<path d="M11.3593 0.00109738C12.3721 0.0454412 12.5261 1.26597 12.4771 2.18137C12.45 2.68715 12.4248 3.24133 12.403 3.81578L12.3833 4.36993C12.3356 5.80653 11.959 8.03215 11.959 8.03215C11.959 8.03215 15.5932 12.4148 16.6254 12.4148C17.6575 12.4148 16.2358 7.394 16.4616 5.62669C16.5175 5.20615 16.5688 4.78511 16.6254 4.36463C16.7477 3.45485 17.6628 2.80695 18.6694 2.91751C19.676 3.02806 20.3928 3.8552 20.2705 4.76498C20.2198 5.14192 20.1715 5.51915 20.124 5.89643L20.124 5.89647C19.9263 7.44567 19.6586 9.54427 19.3996 10.7787C19.1929 11.7636 19.0173 12.7535 18.8097 13.7383C18.7194 14.1669 18.6196 14.6147 18.5076 15.0433C18.9714 15.7454 20.6751 19.3364 21.522 18.6366C22.1639 18.1063 22.2598 10.9036 21.9116 9.23512C21.9116 8.36023 21.8737 7.36076 22.8267 7.0479C23.7798 6.73505 24.3409 6.71872 24.687 7.58014C25.1636 8.76628 25.1525 10.1089 24.9447 11.3486C24.8761 11.7578 24.7798 12.2615 24.6654 12.8188C24.0789 15.6763 24.063 20.3444 24.063 21.0216C24.063 21.6987 25.0255 22.6623 25.8174 23.5032C26.7223 20.9552 27.1302 17.383 26.4846 14.7742C26.2633 13.8798 26.886 12.9926 27.8755 12.7925C28.8651 12.5925 29.8467 13.1553 30.068 14.0497C30.6512 16.4063 30.2097 18.8446 29.5797 21.0216C29.0668 22.7935 27.2635 25.6939 27.8079 26.2716C28.0167 26.493 28.2029 26.6171 28.4106 26.7797L31.3643 29.0849C32.1316 29.684 32.2162 30.7319 31.5533 31.4254C30.8904 32.1189 29.731 32.1954 28.9637 31.5962C27.6115 30.5403 27.2175 29.7624 25.8174 29.0849C24.9447 28.6625 21.365 28.5574 19.081 28.6226C17.4655 28.6688 15.8053 28.6928 14.4455 28.6625C13.7683 28.6475 13.1356 28.6184 12.6069 28.5674C12.1754 28.5257 11.5176 28.448 11.002 28.2134C10.0964 27.8012 9.7319 26.8035 10.1879 25.9849C10.8182 24.8537 12.7799 25.5905 13.8506 25.6939C16.8713 25.9856 23.9959 27.6631 23.5185 26.7797C22.7985 25.4474 21.9116 24.8392 21.159 24.6003C19.081 23.9406 10.3325 23.1963 7.94731 23.0071C6.99972 22.9319 6.157 22.6636 5.50709 22.4426C4.55809 22.1198 4.0783 21.1627 4.43545 20.305C4.7926 19.4473 5.85145 19.0136 6.80044 19.3364C7.41416 19.5452 7.8561 19.6682 8.26845 19.701C11.265 19.9387 18.8097 22.0478 18.8097 21.3707C18.8097 19.8173 16.6893 17.7596 16.0772 17.7156C15.1697 17.6505 13.3503 17.7202 11.9459 17.7156C10.9303 17.7124 9.90993 17.6929 8.90711 17.6738L8.90667 17.6738L7.70018 17.6519C7.23083 17.6442 6.82427 17.6523 6.3655 17.6616C6.25904 17.6637 6.14967 17.6659 6.03614 17.668C5.4401 17.6788 4.77702 17.6845 3.92625 17.6505C2.91326 17.6101 2.12834 16.8351 2.17309 15.9195C2.21783 15.0039 3.07529 14.2945 4.08828 14.3349C5.912 14.4077 13.8506 16.2056 13.8506 15.0433C13.8506 13.7383 12.0723 11.6628 11.6948 11.7633C9.29589 12.4016 7.19625 12.1709 4.79205 12.4148C3.5724 12.5385 2.29955 12.1627 1.56943 10.9036C1.38944 10.5932 1.23423 9.97744 2.13233 9.552C4.08828 8.71309 11.5854 11.0718 10.246 9.552C8.90667 8.03215 7.06517 7.25524 6.03614 6.58688C4.79205 6.31714 4.43545 5.89643 2.6584 6.22772C1.66533 6.41286 0.754149 6.12077 0.31765 5.44725C-1.40269 2.79274 4.4249 4.76613 4.43545 4.76498C4.17489 3.76854 2.16415 1.09719 4.43545 0.814359C5.45765 0.687069 4.74279 2.18137 6.03614 3.81578C7.3295 5.45018 8.90711 6.25559 9.79718 5.89643C10.6858 5.53784 9.73832 3.27961 9.79718 2.18137C9.84624 1.26597 10.3465 -0.0432469 11.3593 0.00109738Z" fill="#CF6F49"/>
</svg>
