<svg width="16" height="16" viewBox="0 0 16 16" fill="none" xmlns="http://www.w3.org/2000/svg">
<path d="M13.8464 0.0102121C12.5554 0.0822255 11.7942 1.86015 11.3241 2.95801L11.324 2.95827C11.2415 3.15093 11.168 3.32266 11.1022 3.46052C9.16508 7.5163 8.92743 9.55824 8.59354 9.76486C8.23871 9.98443 7.77519 8.13118 5.04772 4.41936C4.96028 4.30036 4.85968 4.15005 4.7468 3.98139C4.10397 3.02089 3.06293 1.46541 1.78639 1.7103C1.26927 1.80951 0.928571 1.9071 0.554257 2.35096C-0.0650113 3.08529 -0.142277 4.04749 0.207768 5.00734C1.50445 8.56293 4.69528 11.3662 7.78879 12.4277C7.72737 13.0497 8 16.1752 8 15.9923H9.40329C9.44767 15.3053 9.33421 13.1198 9.40329 12.4239C9.41224 12.3386 9.42026 12.253 9.4287 12.1676C12.401 10.4408 15.236 6.79484 15.9406 2.85394C16.1239 1.82825 15.8884 0.904668 15.1598 0.3367C14.7194 -0.00660589 14.3694 -0.0189603 13.8464 0.0102121Z" fill="#3F942C"/>
</svg>
