<svg width="60" height="20" viewBox="0 0 60 20" fill="none" xmlns="http://www.w3.org/2000/svg">
<path fill-rule="evenodd" clip-rule="evenodd" d="M58.7198 17.6167C58.1201 17.2994 57.2773 16.9003 56.8559 16.7161C55.8997 16.3067 55.8673 16.3989 57.2773 15.6416C59.8543 14.2702 59.5626 13.4617 56.078 12.3463L55.3486 12.1109C56.9856 11.3638 57.5205 11.1182 58.1201 10.6066C59.1088 9.7367 58.4443 8.99974 55.7862 8.04808C54.5707 7.60803 54.5383 7.72063 56.0942 6.92233C59.0764 5.41802 59.2546 5.00357 56.078 3.80625L53.6144 2.80317C56.8883 1.11455 59.4005 0.362514 53.9224 0.0964138C48.9629 -0.139013 15.5592 0.137312 4.74886 0.08619C0.421431 0.0657412 0 0.249913 0 0.730858C0 1.00718 1.15072 1.81571 2.41501 2.4297L3.12813 2.7776L2.13931 3.34047C-0.550975 4.87559 -0.453809 5.55107 2.60933 6.52331C3.51696 6.80986 4.42458 7.14592 4.34361 7.18695C4.26265 7.22785 3.27385 7.5261 2.41501 7.92525C-0.324067 9.21472 0.210716 10.0846 3.06314 10.9545C4.66768 11.4458 4.65149 11.3741 3.16051 11.9267C0.0971582 13.0729 0.466326 13.9284 3.18921 14.9724C4.98827 15.6579 4.2733 15.7803 3.31781 16.0769C2.31767 16.3873 1.26429 16.9413 0.940018 17.4223C0.016035 18.9796 0.787733 19.4805 1.60262 19.4805C11.473 19.6033 53.031 20.1036 55.8511 19.9807C60.0488 19.817 61.1671 18.8959 58.7198 17.6167Z" fill="#F9AA4C"/>
</svg>
