<svg width="32" height="32" viewBox="0 0 32 32" fill="none" xmlns="http://www.w3.org/2000/svg">
<path fill-rule="evenodd" clip-rule="evenodd" d="M10.3327 9.99967C10.3327 6.87006 12.8697 4.33301 15.9993 4.33301C19.129 4.33301 21.666 6.87006 21.666 9.99967C21.666 13.1293 19.129 15.6663 15.9993 15.6663C12.8697 15.6663 10.3327 13.1293 10.3327 9.99967ZM15.9993 6.33301C13.9743 6.33301 12.3327 7.97463 12.3327 9.99967C12.3327 12.0247 13.9743 13.6663 15.9993 13.6663C18.0244 13.6663 19.666 12.0247 19.666 9.99967C19.666 7.97463 18.0244 6.33301 15.9993 6.33301Z" fill="#7A7E80"/>
<path fill-rule="evenodd" clip-rule="evenodd" d="M10.666 19.6663C9.00916 19.6663 7.66602 21.0095 7.66602 22.6663V24.2507C7.66602 24.2748 7.6835 24.2954 7.70731 24.2993C13.199 25.1959 18.7997 25.1959 24.2914 24.2993C24.3152 24.2954 24.3327 24.2748 24.3327 24.2507V22.6663C24.3327 21.0095 22.9895 19.6663 21.3327 19.6663H20.8782C20.843 19.6663 20.8081 19.6719 20.7747 19.6828L19.6207 20.0596C17.2676 20.828 14.7311 20.828 12.378 20.0596L11.224 19.6828C11.1906 19.6719 11.1556 19.6663 11.1205 19.6663H10.666ZM5.66602 22.6663C5.66602 19.9049 7.90459 17.6663 10.666 17.6663H11.1205C11.3665 17.6663 11.6109 17.7052 11.8448 17.7816L12.9988 18.1584C14.9485 18.7951 17.0502 18.7951 18.9999 18.1584L20.1539 17.7816C20.3878 17.7052 20.6322 17.6663 20.8782 17.6663H21.3327C24.0941 17.6663 26.3327 19.9049 26.3327 22.6663V24.2507C26.3327 25.255 25.6048 26.1113 24.6137 26.2732C18.9086 27.2046 13.0901 27.2046 7.38504 26.2732C6.39386 26.1113 5.66602 25.255 5.66602 24.2507V22.6663Z" fill="#7A7E80"/>
</svg>
