<svg width="40" height="40" viewBox="0 0 40 40" fill="none" xmlns="http://www.w3.org/2000/svg">
<path fill-rule="evenodd" clip-rule="evenodd" d="M12.9167 12.5C12.9167 8.588 16.088 5.41669 20 5.41669C23.912 5.41669 27.0833 8.588 27.0833 12.5C27.0833 16.412 23.912 19.5834 20 19.5834C16.088 19.5834 12.9167 16.412 12.9167 12.5ZM20 7.91669C17.4687 7.91669 15.4167 9.96872 15.4167 12.5C15.4167 15.0313 17.4687 17.0834 20 17.0834C22.5313 17.0834 24.5833 15.0313 24.5833 12.5C24.5833 9.96872 22.5313 7.91669 20 7.91669Z"/>
<path fill-rule="evenodd" clip-rule="evenodd" d="M13.3333 24.5834C11.2623 24.5834 9.58333 26.2623 9.58333 28.3334V30.3138C9.58333 30.344 9.60519 30.3697 9.63495 30.3745C16.4995 31.4953 23.5005 31.4953 30.3651 30.3745C30.3948 30.3697 30.4167 30.344 30.4167 30.3138V28.3334C30.4167 26.2623 28.7377 24.5834 26.6667 24.5834H26.0986C26.0546 24.5834 26.011 24.5903 25.9692 24.6039L24.5267 25.075C21.5853 26.0354 18.4147 26.0354 15.4733 25.075L14.0308 24.6039C13.989 24.5903 13.9454 24.5834 13.9014 24.5834H13.3333ZM7.08333 28.3334C7.08333 24.8816 9.88155 22.0834 13.3333 22.0834H13.9014C14.2089 22.0834 14.5145 22.132 14.8068 22.2274L16.2493 22.6984C18.6865 23.4943 21.3135 23.4943 23.7507 22.6984L25.1932 22.2274C25.4855 22.132 25.7911 22.0834 26.0986 22.0834H26.6667C30.1184 22.0834 32.9167 24.8816 32.9167 28.3334V30.3138C32.9167 31.5692 32.0069 32.6396 30.7679 32.8419C23.6365 34.0062 16.3635 34.0062 9.23212 32.8419C7.99314 32.6396 7.08333 31.5692 7.08333 30.3138V28.3334Z"/>
</svg>
